<?xml version="1.0" encoding="UTF-8"?>
<svg id="Layer_1" xmlns="http://www.w3.org/2000/svg" xmlns:xlink="http://www.w3.org/1999/xlink" version="1.1" viewBox="0 0 702.34 702.34">
  <!-- Generator: Adobe Illustrator 30.2.1, SVG Export Plug-In . SVG Version: 2.1.1 Build 1)  -->
  <defs>
    <linearGradient id="linear-gradient" x1="-744.11" y1="951.56" x2="-743.7" y2="951.33" gradientTransform="translate(812750.5 1039971) scale(1093 -1093)" gradientUnits="userSpaceOnUse">
      <stop offset="0" stop-color="#fdf262"/>
      <stop offset="1" stop-color="#d74e43"/>
    </linearGradient>
  </defs>
  <path d="M99.8,15h502.74c46.8,0,84.8,38,84.8,84.8v502.74c0,46.8-38,84.8-84.8,84.8H99.8c-46.8,0-84.8-38-84.8-84.8V99.8C15,53,53,15,99.8,15Z" fill="#fff"/>
  <path d="M602.54,30c18.53,0,36.03,7.29,49.27,20.53,13.24,13.24,20.53,30.74,20.53,49.27v502.74c0,18.53-7.29,36.03-20.53,49.27s-30.74,20.53-49.27,20.53H99.8c-18.53,0-36.03-7.29-49.27-20.53-13.24-13.24-20.53-30.74-20.53-49.27V99.8c0-18.53,7.29-36.03,20.53-49.27s30.74-20.53,49.27-20.53h502.74M602.54,0H99.8C44.91,0,0,44.91,0,99.8v502.74c0,54.89,44.91,99.8,99.8,99.8h502.74c54.89,0,99.8-44.91,99.8-99.8V99.8c0-54.89-44.91-99.8-99.8-99.8h0Z" fill="#1100d6"/>
  <path d="M503.13,559.68c2.57,4.73,3.78,8.91.49,13.28-2.21,2.94-6.84,4.97-11.98,3.33-50.35-16.03-91.27-46.24-128.41-82.55l-105.75-.26c-28.37-.07-55.15-5.94-80.58-17.94-52.72-24.89-86.25-75.6-88.38-133.97-.78-21.36-.6-41.38-.06-62.94,2.17-85.83,70.59-152.84,156.92-152.94l194.39-.22c86.42-.1,156.37,63.51,159.61,149.9.86,22.94.74,44.46.08,67.37-1.49,51.11-28.27,96.83-71.23,123.81-12.89,8.09-25.84,13.56-40.17,18.47-5.56,23.93,3.15,52.72,15.06,74.67Z" fill="#3e72c6"/>
  <path d="M473.55,540.56c-4.43,5.1-25.96,8.35-105.64-66.12-146.55,12.33-284.01-14.38-260.03-195.98-.56-170.53,228.33-130.39,337.4-133.46,103.74-1.14,148.48,104.52,134.97,194.48,7.87,124.03-147.79,94.89-106.7,201.09Z" fill="#fff"/>
  <path d="M445.56,533.95c-.62.17-1.99-.02-1.36-1.07.71-.13,1.22.41,1.36,1.07Z" fill="#fff"/>
  <path d="M315.18,308.51c-.29-2.06.68-3.94,0-5.53.64-7.34,4.41-14.18,10.85-18.93,8.11-5.99,18.74-7.56,28.98-3.07,7.37,3.24,14.17,11.6,15.25,20.74,1.95,16.6-8.69,30.08-24.86,31.85-15.45,1.69-28.12-10.11-30.22-25.07Z" fill="#3e72c6"/>
  <path d="M443.16,279.19c15.33-3.83,30.01,5.39,33.71,20.33,3.6,14.53-5.42,29.73-20.81,33.48-13.94,3.4-28.71-5.26-32.77-19.52-4.18-14.69,4.31-30.39,19.87-34.28Z" fill="#1100d6"/>
  <path d="M228.69,279.27c15.39-4.14,30.02,5.31,33.87,19.87,3.88,14.64-5.08,29.73-19.99,33.69-14.32,3.8-29.16-4.96-33.23-19.4s4.03-30.03,19.35-34.15Z" fill="#94a6c4"/>
  <g id="Ref" display="none">
    <circle id="circle" cx="-358.6" cy="26.52" r="234.37" fill="url(#linear-gradient)"/>
    <path id="bottom-left1" d="M-419.8,176.98h-84.39c-2.84,0-5.14-2.31-5.15-5.15v-84.39c0-2.84,2.31-5.14,5.15-5.15h84.39c2.84,0,5.14,2.31,5.15,5.15v84.39c0,2.84-2.31,5.14-5.15,5.15" fill="#e2057f"/>
    <path id="mid-mid2" d="M-400.93,73.72c-2.84,0-5.14-2.31-5.15-5.15V-15.82c0-2.84,2.31-5.14,5.15-5.15h84.39c2.84,0,5.14,2.31,5.15,5.15,0,0-28.48,5.6-54.06,31.18-25.58,25.58-35.47,58.35-35.47,58.35" fill="#5b00ea"/>
    <path id="mid-left1" d="M-419.8,73.72h-84.39c-2.84,0-5.14-2.31-5.15-5.15V-15.82c0-2.84,2.31-5.14,5.15-5.15h84.39c2.84,0,5.14,2.31,5.15,5.15v84.39c0,2.84-2.31,5.14-5.15,5.15" fill="#b800e5"/>
    <path id="top-right2" d="M-213.29-29.54h-84.39c-2.84,0-5.14-2.31-5.15-5.15v-84.39c0-2.84,2.31-5.14,5.15-5.15h84.39c2.84,0,5.14,2.31,5.15,5.15V-34.69c0,2.84-2.31,5.14-5.15,5.15" fill="#e2057f"/>
    <path id="top-mid1" d="M-316.55-29.54h-84.39c-2.84,0-5.14-2.31-5.15-5.15v-84.39c0-2.84,2.31-5.14,5.15-5.15h84.39c2.84,0,5.14,2.31,5.15,5.15V-34.69c0,2.84-2.31,5.14-5.15,5.15" fill="#b800e5"/>
    <path id="top-left1" d="M-419.8-29.54h-84.39c-2.84,0-5.14-2.31-5.15-5.15l8.58-75.81c0-2.84,2.31-5.14,5.15-5.15l75.81-8.58c2.84,0,5.14,2.31,5.15,5.15V-34.69c0,2.84-2.31,5.14-5.15,5.15" fill="#1c00ea"/>
  </g>
</svg>