<?xml version="1.0" encoding="UTF-8"?>
<svg id="Layer_1" xmlns="http://www.w3.org/2000/svg" version="1.1" viewBox="0 0 24 24">
  <!-- Generator: Adobe Illustrator 30.2.1, SVG Export Plug-In . SVG Version: 2.1.1 Build 1)  -->
  <rect y="0" width="24" height="24" rx="5.04" ry="5.04" fill="#fff"/>
  <path d="M6.82,5.03c2.1,1.57,4.35,4.76,5.18,6.48.83-1.71,3.08-4.9,5.18-6.48,1.51-1.14,3.96-2.01,3.96.78,0,.56-.32,4.69-.51,5.36-.65,2.33-3.03,2.93-5.15,2.57,3.7.63,4.64,2.71,2.61,4.8-3.86,3.96-5.55-.99-5.98-2.26-.08-.23-.12-.34-.12-.25,0-.09-.04.02-.12.25-.43,1.27-2.12,6.22-5.98,2.26-2.03-2.08-1.09-4.17,2.61-4.8-2.12.36-4.49-.23-5.15-2.57-.19-.67-.51-4.8-.51-5.36,0-2.8,2.45-1.92,3.96-.78h0Z" fill="#1185fe"/>
</svg>